<?xml version="1.0" encoding="UTF-8" standalone="no"?>
<!-- Created with Inkscape (http://www.inkscape.org/) -->

<svg
   version="1.1"
   id="svg2"
   xml:space="preserve"
   width="1333.3333"
   height="1066.6667"
   viewBox="0 0 1333.3333 1066.6667"
   sodipodi:docname="64671.eps"
   xmlns:inkscape="http://www.inkscape.org/namespaces/inkscape"
   xmlns:sodipodi="http://sodipodi.sourceforge.net/DTD/sodipodi-0.dtd"
   xmlns="http://www.w3.org/2000/svg"
   xmlns:svg="http://www.w3.org/2000/svg"><defs
     id="defs6" /><sodipodi:namedview
     id="namedview4"
     pagecolor="#ffffff"
     bordercolor="#666666"
     borderopacity="1.0"
     inkscape:pageshadow="2"
     inkscape:pageopacity="0.0"
     inkscape:pagecheckerboard="0" /><g
     id="g8"
     inkscape:groupmode="layer"
     inkscape:label="ink_ext_XXXXXX"
     transform="matrix(1.3333333,0,0,-1.3333333,0,1066.6667)"><g
       id="g10"
       transform="scale(0.1)"><path
         d="M 0.00390625,0 H 10000.004 V 8000 H 0.00390625 Z"
         style="fill:#ffffff;fill-opacity:1;fill-rule:nonzero;stroke:none"
         id="path12" /><path
         d="m 8246.84,274.59 c -52.98,0 -106.26,1.43 -160.13,4.93 -205.78,13.359 -414.38,20.031 -619.13,39.101 -469.93,43.75 -940.07,46.34 -1413.41,46.34 -187.92,0 -375.8,1.219 -563.68,1.219 -273.62,0 -547.16,-2.59 -820.24,-15.301 -426.08,-19.828 -852.81,-22.988 -1279.66,-22.988 -64.27,0 -128.6,0.07 -192.86,0.172 -4.19,0.007 -8.34,0.007 -12.52,0.007 -236.25,0 -471.59,-10.129 -707.48,-17.281 -236.98,-7.18 -467.45,-18.976 -703.06,-18.976 -21.24,0 -42.53,0.085 -63.87,0.296 -235.42,2.25 -593.88,49.961 -761.835,171.551 -99.719,72.242 -86.195,246.039 13.672,315.692 43.623,30.429 113.953,54.257 171.403,68.757 163.66,41.301 330.2,41.411 501.21,42.262 2.09,0.008 4.18,0.02 6.28,0.02 118,0 240.7,-16.551 353.79,-39.532 102.9,-20.91 208.03,-28.238 312.68,-41.257 85.63,-10.653 177.25,-15.75 267.86,-15.75 58.96,0 117.51,2.16 173.67,6.359 151.94,11.348 304.97,16.629 457.36,25.578 189.24,11.102 374.43,35.203 563,48.113 94.4,6.469 186.61,22.489 280.8,29.778 249.81,19.332 500.06,23.511 750.31,24.031 20.22,0.039 40.43,0.059 60.65,0.059 119.21,0 238.41,-0.618 357.55,-0.618 96.87,0 193.65,0.2 290.47,0.2 331.21,0 662.17,-2.36 992.49,-23.262 102.37,-6.481 204.07,-2.559 305.01,-17.969 101.35,-15.473 203.66,-29.582 307.49,-32.34 88.85,-2.351 177.94,-3.133 267.15,-3.133 158.66,0 317.62,2.461 475.75,2.864 15.85,0.039 37.91,0.097 65.29,0.097 354.05,0 1587,-11.32 1498.55,-240.179 -33.99,-87.95 -231.6,-202.41 -342.44,-239.25 -140.03,-46.551 -293.16,-74.078 -447.3,-83.371 -129.9,-7.817 -256.55,-16.219 -384.82,-16.219"
         style="fill:#e4e4e4;fill-opacity:1;fill-rule:nonzero;stroke:none"
         id="path14" /><path
         d="m 7635.93,692.738 h -115.84 l -4.77,973.182 215.7,-46.39 -95.09,-926.792"
         style="fill:#e5bbae;fill-opacity:1;fill-rule:nonzero;stroke:none"
         id="path16" /><path
         d="m 6748.52,681.641 9.17,-71.352 -133.52,-89.687 -80.52,62.168 62.17,80.519 133.52,89.691 9.18,-71.339"
         style="fill:#122235;fill-opacity:1;fill-rule:nonzero;stroke:none"
         id="path18" /><path
         d="m 6753.03,705.59 -102.97,909.92 123.89,1018.65 -27.86,216.68 -553.37,21.03 -19.97,-352.68 92.9,-905.08 349.49,-955.02 137.89,46.5"
         style="fill:#1a3151;fill-opacity:1;fill-rule:nonzero;stroke:none"
         id="path20" /><path
         d="m 5797.99,2557.97 -21.54,-708.6 150.7,-1186.89 133.01,-2.511 104.59,1090.571 155.38,835.05 -522.14,-27.62"
         style="fill:#1a3151;fill-opacity:1;fill-rule:nonzero;stroke:none"
         id="path22" /><path
         d="m 6058.34,603.902 -145.2,-69.211 -70.56,73.27 73.27,70.57 143.84,-2.711 -1.35,-71.918"
         style="fill:#122235;fill-opacity:1;fill-rule:nonzero;stroke:none"
         id="path24" /><path
         d="m 6807.9,2457.16 c -5.63,61.87 5.85,180.32 2.22,210.93 -24.64,208.39 -15.85,410.17 -51.76,618.74 -13.43,77.93 -60.19,272.46 -93.98,344.75 -84.02,179.75 -58.06,196.36 -427.12,249.74 -102.59,14.84 -184.7,-34.52 -248.64,-112.3 -82,-99.74 -66.75,-261.32 -110.46,-379.26 -50.04,-134.99 -31.29,-282.17 -51.6,-423.92 -24.55,-171.39 -56.35,-349.13 -72.06,-517.12 -0.5,-5.36 -0.71,-11.56 3.26,-15.2 3.25,-2.97 8.13,-3.08 12.54,-2.98 126.69,2.85 252.64,16.84 379.92,15.89 98.6,-0.73 195.04,-23.35 293.17,-29.61 44.26,-2.82 91.83,6.78 139.84,16.38 82.16,16.43 165.59,32.86 235.86,-13 -6.03,3.94 -9.44,17.71 -11.19,36.96"
         style="fill:#145566;fill-opacity:1;fill-rule:nonzero;stroke:none"
         id="path26" /><path
         d="m 6236.79,3830.63 c 18.63,-9.2 62.58,-12.5 108.44,5.46 9.24,3.63 15.47,12.54 15.34,22.46 -0.36,27.85 -2.6,55.67 -6.7,83.23 34.39,12.09 74.13,30.22 80.13,66.18 1.88,11.33 -0.08,22.9 -2.03,34.22 -8.08,46.77 -16.17,93.55 -24.25,140.32 -2.8,16.18 -5.77,32.83 -14.56,46.69 -15.44,24.32 -45.4,34.97 -73.79,39.9 -72.43,12.57 -151.36,-3.12 -207.52,-50.57 -14.95,-12.62 -28.46,-27.8 -35.06,-46.22 -10.16,-28.4 -2.55,-59.74 5.11,-88.91 7.07,-26.94 14.14,-53.87 21.21,-80.8 8.13,-30.98 19.88,-66.19 49.72,-77.81 15.85,-6.17 34.56,-4.37 48.91,-13.49 25.3,-16.1 21.89,-53.71 35.05,-80.66"
         style="fill:#e5bbae;fill-opacity:1;fill-rule:nonzero;stroke:none"
         id="path28" /><path
         d="m 5818.75,4297.11 c -7.12,11.69 -14.78,22.96 -23.35,33.53 -18.58,22.9 -41.46,42.53 -56.41,67.94 -14.94,25.42 -20.2,59.87 -2.27,83.27 11.57,15.11 30.35,22.66 48.6,28.03 60.16,17.71 125.07,18.9 185.83,3.44 57.88,-14.73 109.67,-39.13 167.93,-17.37 54.74,20.44 94.28,12.11 151.49,-8.3 61.91,-22.09 145.02,-27.3 201.06,-58.49 23.4,-13.02 42.07,-33.37 56.63,-55.85 50.42,-77.89 50.7,-185.27 0.68,-263.42 -11.22,-17.53 -24.65,-33.56 -38.76,-48.86 -29.21,-31.68 -64.14,-70.8 -104.32,-82.54 -0.96,35.94 31.78,149.28 4.18,178.74 -43.81,46.75 -142.85,30.44 -197.2,18.93 -59.27,-12.56 -112.11,-54.53 -170.87,-63.5 -42.29,-6.45 -96.26,14.28 -132.22,36.14 -44.38,26.99 -65.04,105.68 -91,148.31"
         style="fill:#101e30;fill-opacity:1;fill-rule:nonzero;stroke:none"
         id="path30" /><path
         d="m 6913.72,4352.16 -58.05,151.42 53.76,67.01 56.86,-48.65 23.64,-61.65 41.62,-1.01 -2.02,-112.65 238.43,-484 412.36,4.07 -91.3,-327.7 -406.38,141.31 -124.06,119.2 -144.86,552.65"
         style="fill:#e5bbae;fill-opacity:1;fill-rule:nonzero;stroke:none"
         id="path32" /><path
         d="m 8388.07,4444.96 -3.62,113.43 88.72,91.65 72.97,-17.61 -62.71,-268.43 -95.36,80.96"
         style="fill:#e5bbae;fill-opacity:1;fill-rule:nonzero;stroke:none"
         id="path34" /><path
         d="m 7931.49,3907.94 330.13,-120.58 126.45,657.6 88.33,-18.83 27.24,-750.71 -103.88,-161.02 -328.9,94.4 -139.37,299.14"
         style="fill:#e5bbae;fill-opacity:1;fill-rule:nonzero;stroke:none"
         id="path36" /><path
         d="m 7771.11,2282.21 520.1,174.53 -131.91,-898.58 -272.91,-94.11 -98.85,741.66 -16.43,76.5"
         style="fill:#145566;fill-opacity:1;fill-rule:nonzero;stroke:none"
         id="path38" /><path
         d="m 8101.31,729.129 105.37,-0.359 24.34,-89.622 -2.67,-0.707 0.67,-0.089 -177.04,-98.172 -83.03,-6.828 -7.81,94.898 22.83,15.738 117.34,85.141"
         style="fill:#122235;fill-opacity:1;fill-rule:nonzero;stroke:none"
         id="path40" /><path
         d="m 7410.61,2276.77 98.84,-684.75 239.38,-40.34 201.2,825.08 -539.42,-99.99"
         style="fill:#145566;fill-opacity:1;fill-rule:nonzero;stroke:none"
         id="path42" /><path
         d="m 7520.09,692.738 -137.13,-72.636 10.82,-64.043 242.15,1.832 v 134.847 h -115.84"
         style="fill:#122235;fill-opacity:1;fill-rule:nonzero;stroke:none"
         id="path44" /><path
         d="m 7382.96,2241.08 c 25.27,-6.52 55.41,2.68 81.78,3.01 121.23,1.54 238.53,-0.84 359.81,10.88 129.58,12.52 259.1,28.48 389.46,29.5 54.19,5.5 108.4,8.42 162.39,6.98 -57.65,305.73 -124.93,594.55 -124.89,594.57 -22.81,86.99 -40.21,175.47 -50.63,264.19 -7.41,63.15 -164.38,780.93 -153.97,781.85 -108.12,-9.52 -316.6,21.3 -396.68,-71.28 -2.29,-2.65 -4.48,-5.4 -6.55,-8.25 -62.44,-85.84 -94.87,-259.65 -124.39,-366.64 -43.06,-156.08 -38.46,-319.44 -44.02,-479.76 -7.87,-226.99 -78.69,-440.91 -85.19,-667.52 -0.93,-32.65 -5.21,-65.09 -7.12,-97.53"
         style="fill:#b5d6ca;fill-opacity:1;fill-rule:nonzero;stroke:none"
         id="path46" /><path
         d="m 7848.67,4289.95 c -59.26,-6.82 -134.73,-52.12 -152.89,-112.97 -8.75,-29.31 -0.86,-57.34 -11.46,-88.33 -20.68,-61.18 48.65,-157.85 -28.77,-196.23 -39.79,-19.74 -87.22,-9.39 -130.32,1.35 -5.22,1.31 -10.69,2.73 -14.65,6.38 -6.52,6 -7,16.46 -3.83,24.74 3.16,8.29 9.23,15.06 14.61,22.11 56.3,73.7 51.13,185.04 76.8,271.5 25.63,86.28 78.41,170.43 167.54,200.69 41.42,-30.86 69.03,-62.93 76.5,-114.04 l 6.47,-15.2"
         style="fill:#101e30;fill-opacity:1;fill-rule:nonzero;stroke:none"
         id="path48" /><path
         d="m 7770.4,3927.09 c -54.76,27.79 -88.33,87.59 -96.66,148.43 -8.34,60.84 5.48,122.7 25.94,180.6 68.07,192.68 310.73,120.3 357.17,-51.32 40.48,-149.57 -127.23,-358.51 -286.45,-277.71"
         style="fill:#e5bbae;fill-opacity:1;fill-rule:nonzero;stroke:none"
         id="path50" /><path
         d="m 8030.22,3790.9 c -26.53,19.01 -52.46,38.78 -66.38,71.94 -22.5,53.6 -6.29,133.52 -5.69,190.03 0.65,59.56 -0.52,124.58 -38.37,170.56 -24.72,30.04 -56.9,39.95 -93.57,46.13 -25.12,4.23 -27.53,-5.14 -46.76,11.6 -14.74,12.83 -23.98,45.87 -25.01,64.53 -1.72,31.46 15.41,61.77 39.17,82.47 36.56,31.86 76.07,44.43 122.95,38.37 164.59,-21.27 272.97,-137.21 294.89,-304.49 10.54,-80.41 -18.93,-163.67 -6.46,-241.41 7.69,-47.98 32.4,-82.93 36.88,-133.47 11.66,-131.16 56.99,-303.5 31.82,-433.46 -0.93,-4.81 -2.31,-10.09 -6.42,-12.75 -8.38,-5.43 -18.22,4.22 -23.53,12.68 -30.93,49.34 -61.86,98.69 -92.8,148.04 -12.14,19.38 -24.44,39.09 -30.77,61.06 -15.77,54.72 6.43,119.03 -23.8,167.28 -16.5,26.33 -41.58,43.28 -66.15,60.89"
         style="fill:#101e30;fill-opacity:1;fill-rule:nonzero;stroke:none"
         id="path52" /><path
         d="m 2386.42,4773.3 -3.63,113.43 88.73,91.66 57.39,-33.19 -50.66,-216.89 -91.83,44.99"
         style="fill:#e5bbae;fill-opacity:1;fill-rule:nonzero;stroke:none"
         id="path54" /><path
         d="m 2052.35,3723.79 207.62,391.92 126.45,657.59 88.33,-18.83 3.55,-704.09 -80.19,-207.63 -206.39,-418.1 -139.37,299.14"
         style="fill:#e5bbae;fill-opacity:1;fill-rule:nonzero;stroke:none"
         id="path56" /><path
         d="m 1611.93,699.148 -6.99,-55.816 99.84,-72.152 60.38,47.64 -46.42,63.981 -99.84,72.16 -6.97,-55.813"
         style="fill:#122235;fill-opacity:1;fill-rule:nonzero;stroke:none"
         id="path58" /><path
         d="m 1654.86,2409.59 -21.2,-169.5 138.39,-587.36 -163.46,-934.738 103.16,-38.363 295.91,909.371 49.82,265.4 11.74,564.07 -414.36,-8.88"
         style="fill:#9ea6ad;fill-opacity:1;fill-rule:nonzero;stroke:none"
         id="path60" /><path
         d="m 2450.39,2201.33 -255.91,-1566.721 -99.45,2.352 5.9,1007.999 -164.3,711.48 513.76,-155.11"
         style="fill:#9ea6ad;fill-opacity:1;fill-rule:nonzero;stroke:none"
         id="path62" /><path
         d="m 2095.9,649.379 -1.34,-56.469 106.21,-58.988 55.11,55.187 -52.44,57.731 -107.54,2.539"
         style="fill:#122235;fill-opacity:1;fill-rule:nonzero;stroke:none"
         id="path64" /><path
         d="m 1695.9,2856.88 c 7.74,31.35 13.13,53.52 15.05,61.53 34.79,144.81 23.53,314.15 32.19,464.16 6.75,117.08 1.16,234.92 9.08,351.77 6.14,90.58 78.32,135.95 78.32,135.95 31.38,5.5 58.95,22.84 90.62,29.19 214.22,42.97 327,-105.45 403.06,-264.45 60.61,-126.71 109.34,-240.46 113.57,-379.76 6.91,-227.38 -17.31,-454.59 28.69,-677.33 26.67,-129.1 36.49,-261.65 29.14,-393.26 -88,27.38 -170.23,63.24 -255.68,93.93 -83.15,29.86 -179.93,29.83 -270.7,29.81 -19.93,-0.01 -39.56,-0.01 -58.71,0.3 -35.24,0.58 -70.25,0.14 -105.16,-0.3 -86.88,-1.09 -173.1,-2.18 -260.56,12.32 16.16,-2.68 112.61,380.24 151.09,536.14"
         style="fill:#1a3151;fill-opacity:1;fill-rule:nonzero;stroke:none"
         id="path66" /><path
         d="m 2113.5,3892.55 26.47,-596.43 -291.91,573.26 89.79,29.7 64.06,17.57 111.59,-24.1"
         style="fill:#ececec;fill-opacity:1;fill-rule:nonzero;stroke:none"
         id="path68" /><path
         d="M 3432.89,1823.99 2108.55,2105.76 2481.11,3857.71 3805.45,3575.94 3432.89,1823.99"
         style="fill:#145566;fill-opacity:1;fill-rule:nonzero;stroke:none"
         id="path70" /><path
         d="M 3382.11,1913.47 2191.35,2166.82 2536.04,3787.7 3726.8,3534.35 3382.11,1913.47"
         style="fill:#ffffff;fill-opacity:1;fill-rule:nonzero;stroke:none"
         id="path72" /><path
         d="m 3389.99,3606.01 -517.15,110.03 1.82,8.56 517.15,-110.03 -1.82,-8.56"
         style="fill:#124b5a;fill-opacity:1;fill-rule:nonzero;stroke:none"
         id="path74" /><path
         d="m 3381.58,3566.45 -517.15,110.03 8.41,39.56 517.15,-110.03 -8.41,-39.56"
         style="fill:#e0e0e0;fill-opacity:1;fill-rule:nonzero;stroke:none"
         id="path76" /><path
         d="m 3231.87,3798.56 -136.25,28.99 c -13.93,2.96 -22.92,16.68 -19.98,30.49 2.93,13.8 16.73,22.68 30.66,19.72 l 136.25,-28.99 c 13.93,-2.97 22.92,-16.69 19.98,-30.49 -2.93,-13.81 -16.73,-22.68 -30.66,-19.72 z m 84.9,-15.86 -8.02,1.71 1.14,5.36 c 10.74,50.53 -28,101.58 -86.55,114.04 l -77.1,16.4 c -58.55,12.46 -114.71,-18.41 -125.46,-68.93 l -1.14,-5.36 -8.02,1.71 c -58.55,12.45 -114.71,-18.41 -125.46,-68.94 l -21.73,-102.21 517.15,-110.03 21.74,102.21 c 10.74,50.53 -28.01,101.58 -86.55,114.04"
         style="fill:#b5d6ca;fill-opacity:1;fill-rule:nonzero;stroke:none"
         id="path78" /><path
         d="m 2733.8,3072.26 c -0.67,0 -1.37,0.07 -2.11,0.23 -58.27,12.39 -116.55,24.79 -174.82,37.19 -4.94,1.05 -8.23,6.08 -7.19,10.96 12.29,57.77 24.57,115.54 36.86,173.31 0.9,4.27 4.87,7.29 9.14,7.29 0.63,0 1.25,-0.07 1.88,-0.2 58.28,-12.4 116.55,-24.8 174.83,-37.2 4.93,-1.04 8.22,-6.08 7.18,-10.96 -12.28,-57.77 -24.57,-115.54 -36.85,-173.3 -0.57,-2.68 -1.99,-4.5 -3.78,-5.62 l -0.21,-0.15 -0.37,-0.22 c -1.28,-0.83 -2.8,-1.33 -4.56,-1.33 m -130.97,208.79 c -11.01,-51.75 -22.01,-103.5 -33.02,-155.25 52.2,-11.11 104.41,-22.22 156.62,-33.32 11,51.75 22.01,103.5 33.01,155.25 -52.2,11.11 -104.41,22.22 -156.61,33.32"
         style="fill:#c7cbcd;fill-opacity:1;fill-rule:nonzero;stroke:none"
         id="path80" /><path
         d="m 2665.66,2751.82 c -0.67,0 -1.38,0.07 -2.11,0.23 -58.27,12.39 -116.55,24.79 -174.83,37.19 -4.93,1.05 -8.22,6.09 -7.18,10.96 12.28,57.77 24.57,115.55 36.85,173.31 0.91,4.27 4.88,7.29 9.15,7.29 0.62,0 1.25,-0.07 1.88,-0.2 58.27,-12.4 116.55,-24.8 174.83,-37.2 4.93,-1.04 8.22,-6.08 7.18,-10.96 -12.29,-57.77 -24.57,-115.54 -36.86,-173.3 -0.56,-2.68 -1.98,-4.5 -3.77,-5.63 l -0.21,-0.14 -0.37,-0.22 c -1.28,-0.83 -2.8,-1.33 -4.56,-1.33 m -130.97,208.79 c -11.01,-51.75 -22.02,-103.5 -33.02,-155.25 52.2,-11.11 104.41,-22.22 156.61,-33.32 11.01,51.75 22.02,103.5 33.02,155.25 -52.21,11.11 -104.41,22.22 -156.61,33.32"
         style="fill:#c7cbcd;fill-opacity:1;fill-rule:nonzero;stroke:none"
         id="path82" /><path
         d="m 2597.51,2431.38 c -0.66,0 -1.37,0.07 -2.11,0.23 -58.27,12.39 -116.54,24.8 -174.82,37.19 -4.93,1.05 -8.23,6.09 -7.18,10.96 12.28,57.78 24.57,115.54 36.85,173.32 0.91,4.26 4.88,7.28 9.15,7.28 0.62,0 1.25,-0.07 1.88,-0.2 58.27,-12.4 116.54,-24.79 174.82,-37.19 4.93,-1.05 8.22,-6.08 7.18,-10.97 -12.28,-57.77 -24.56,-115.54 -36.85,-173.3 -0.57,-2.68 -1.98,-4.5 -3.78,-5.63 l -0.2,-0.14 -0.37,-0.22 c -1.28,-0.83 -2.8,-1.33 -4.57,-1.33 m -130.97,208.79 c -11.01,-51.75 -22.01,-103.5 -33.01,-155.25 52.2,-11.11 104.41,-22.22 156.61,-33.32 11.01,51.75 22.01,103.5 33.02,155.25 -52.21,11.11 -104.41,22.22 -156.62,33.32"
         style="fill:#c7cbcd;fill-opacity:1;fill-rule:nonzero;stroke:none"
         id="path84" /><path
         d="m 2642.5,3222.94 43.01,4.73 13.85,-44.58 221.16,96.35 21.38,-9.17 -261.82,-133.97 -37.58,86.64"
         style="fill:#145566;fill-opacity:1;fill-rule:nonzero;stroke:none"
         id="path86" /><path
         d="m 2558.06,2897.47 43,4.74 13.85,-44.59 221.16,96.36 21.38,-9.18 -261.81,-133.96 -37.58,86.63"
         style="fill:#145566;fill-opacity:1;fill-rule:nonzero;stroke:none"
         id="path88" /><path
         d="m 2489.92,2594.96 43.01,4.73 13.85,-44.58 221.16,96.35 21.38,-9.17 -261.82,-133.97 -37.58,86.64"
         style="fill:#145566;fill-opacity:1;fill-rule:nonzero;stroke:none"
         id="path90" /><path
         d="m 3331.75,2310.79 -616.75,131.22 18.43,86.66 616.75,-131.22 -18.43,-86.66"
         style="fill:#d8dcdd;fill-opacity:1;fill-rule:nonzero;stroke:none"
         id="path92" /><path
         d="m 3403.92,2650.19 -616.74,131.22 18.42,86.65 616.75,-131.22 -18.43,-86.65"
         style="fill:#d8dcdd;fill-opacity:1;fill-rule:nonzero;stroke:none"
         id="path94" /><path
         d="m 3476.1,2989.58 -616.75,131.22 18.43,86.66 616.74,-131.22 -18.42,-86.66"
         style="fill:#d8dcdd;fill-opacity:1;fill-rule:nonzero;stroke:none"
         id="path96" /><path
         d="m 1678.96,5130.58 246.52,30.41 c 5.44,14.03 17.77,24.59 33.2,26.49 l 650.67,80.25 c 15.43,1.9 29.96,-5.34 38.64,-17.63 l 246.52,30.4 32.27,-261.44 -243.84,-30.07 c -3.81,-17.16 -17.41,-30.75 -35.13,-32.94 l -650.66,-80.25 c -17.71,-2.18 -34.21,7.69 -42.08,23.42 l -243.84,-30.07 -32.27,261.43"
         style="fill:#145566;fill-opacity:1;fill-rule:nonzero;stroke:none"
         id="path98" /><path
         d="m 2752.36,4997.51 v 0.04 l 93.37,11.51 v -0.03 l -93.37,-11.52"
         style="fill:#e0e0e0;fill-opacity:1;fill-rule:nonzero;stroke:none"
         id="path100" /><path
         d="m 2752.36,4997.55 35.05,263.58 26.88,2.45 31.44,-254.52 -93.37,-11.51"
         style="fill:#124b5a;fill-opacity:1;fill-rule:nonzero;stroke:none"
         id="path102" /><path
         d="m 3006.08,4693.87 14.37,1.77 c 63.6,7.85 108.84,65.39 101.05,128.53 l -84.74,686.59 c -7.79,63.14 -65.67,107.96 -129.27,100.12 l -14.36,-1.77 c -63.61,-7.85 -108.85,-65.39 -101.06,-128.53 l 84.74,-686.59 c 7.79,-63.14 65.67,-107.97 129.27,-100.12"
         style="fill:#145566;fill-opacity:1;fill-rule:nonzero;stroke:none"
         id="path104" /><path
         d="m 3249.12,4723.85 14.37,1.77 c 63.6,7.84 108.84,65.39 101.05,128.52 l -84.74,686.59 c -7.79,63.14 -65.67,107.97 -129.27,100.12 l -14.37,-1.77 c -63.6,-7.84 -108.84,-65.39 -101.05,-128.52 l 84.74,-686.6 c 7.79,-63.13 65.67,-107.96 129.27,-100.11"
         style="fill:#145566;fill-opacity:1;fill-rule:nonzero;stroke:none"
         id="path106" /><path
         d="m 3350.05,5065.78 24.2,11.07 c 17.61,8.06 27.81,32.31 24.59,58.42 l -17.42,141.09 c -3.22,26.12 -19.01,47.16 -38.05,50.7 l -26.17,4.87 c -26.18,4.87 -46.9,-24.71 -42.47,-60.63 l 19.38,-157.04 c 4.43,-35.92 31.72,-59.57 55.94,-48.48"
         style="fill:#145566;fill-opacity:1;fill-rule:nonzero;stroke:none"
         id="path108" /><path
         d="m 1746.91,4538.57 -14.37,-1.77 c -63.61,-7.85 -121.48,36.98 -129.27,100.12 l -84.74,686.59 c -7.8,63.13 37.45,120.68 101.05,128.53 l 14.37,1.76 c 63.6,7.85 121.48,-36.98 129.27,-100.12 l 84.74,-686.58 c 7.79,-63.14 -37.45,-120.68 -101.05,-128.53"
         style="fill:#145566;fill-opacity:1;fill-rule:nonzero;stroke:none"
         id="path110" /><path
         d="m 1503.86,4508.59 -14.36,-1.77 c -63.6,-7.84 -121.48,36.98 -129.27,100.12 l -84.74,686.59 c -7.79,63.14 37.45,120.68 101.05,128.53 l 14.37,1.77 c 63.6,7.84 121.48,-36.98 129.27,-100.12 l 84.73,-686.59 c 7.8,-63.14 -37.45,-120.68 -101.05,-128.53"
         style="fill:#145566;fill-opacity:1;fill-rule:nonzero;stroke:none"
         id="path112" /><path
         d="m 1322.82,4815.75 -26.16,4.86 c -19.04,3.55 -34.83,24.58 -38.05,50.7 l -17.42,141.09 c -3.22,26.12 6.98,50.36 24.59,58.42 l 24.2,11.08 c 24.21,11.09 51.51,-12.57 55.94,-48.49 l 19.38,-157.03 c 4.43,-35.93 -16.29,-65.5 -42.48,-60.63"
         style="fill:#145566;fill-opacity:1;fill-rule:nonzero;stroke:none"
         id="path114" /><path
         d="m 6025.77,3429.62 c -11.93,27.2 -59.83,51.8 -59.83,51.8 l -225.82,87.22 c -23.91,9.24 -44.94,27.19 -59.7,50.39 9.71,4.75 14.09,16.27 9.73,26.22 -4.47,10.21 -16.43,14.84 -26.69,10.33 l -0.75,-0.33 -14.26,32.5 -193.26,-84.76 14.25,-32.5 -6.89,-3.02 c -10.26,-4.5 -14.95,-16.42 -10.47,-26.64 4.47,-10.21 16.43,-14.83 26.69,-10.33 l 5.65,2.48 c 7.96,-28.2 6.72,-57.7 -3.9,-82.69 l -94.97,-223.42 c 0,0 -14.36,-51.89 -2.43,-79.1 l 61.08,-139.27 c 0,0 193.07,-75.24 121.46,-272.95 l 363.74,-833.36 c 0,0 356.19,-57.61 642.65,281.85 l -366.68,832.07 c -187.06,77.45 -118.52,274.24 -118.52,274.24 l -61.08,139.27"
         style="fill:#d1e7f5;fill-opacity:1;fill-rule:nonzero;stroke:none"
         id="path116" /><path
         d="m 6394.09,2589.79 -184.32,420.28 -149.14,-80.27 c -120.11,-59.1 -211.71,-96.96 -342.24,-150.1 l -151.27,-51.47 184.33,-420.29 -2.03,-0.88 c 382.36,29.47 646.7,283.62 646.7,283.62 l -2.03,-0.89"
         style="fill:#3ababa;fill-opacity:1;fill-rule:nonzero;stroke:none"
         id="path118" /><path
         d="m 5911.62,2778.85 115.83,50.8 -57,-147.47 119.62,4.7 -107.84,-229.75 1.88,156.42 -95.9,-21.31 23.41,186.61"
         style="fill:#ffffff;fill-opacity:1;fill-rule:nonzero;stroke:none"
         id="path120" /><path
         d="m 5638.78,3655.13 -159.17,-69.8 c -27.69,-12.15 -59.97,0.46 -72.12,28.14 l -21.7,49.48 c -12.14,27.68 0.46,59.97 28.15,72.11 l 159.17,69.81 c 27.68,12.14 59.97,-0.46 72.11,-28.15 l 21.7,-49.47 c 12.14,-27.69 -0.46,-59.98 -28.14,-72.12"
         style="fill:#1a3151;fill-opacity:1;fill-rule:nonzero;stroke:none"
         id="path122" /><path
         d="m 5485.05,3530.67 194.62,87.94 c 0,0 7.45,-10.27 13.89,-17.03 l -208.51,-70.91"
         style="fill:#b3c6d2;fill-opacity:1;fill-rule:nonzero;stroke:none"
         id="path124" /><path
         d="m 5567.18,2891.46 c -36.27,80.08 -121.3,113.22 -121.3,113.22 l -0.85,1.94 1.8,0.78 c 14.85,-6.44 88.73,-41.6 120.35,-115.94"
         style="fill:#f0f1f1;fill-opacity:1;fill-rule:nonzero;stroke:none"
         id="path126" /><path
         d="m 6092.74,3118.83 c -33.32,73.77 -11.47,153.57 -6.73,168.9 l 1.67,0.73 0.85,-1.94 c 0,0 -30.21,-86.72 4.21,-167.69"
         style="fill:#135161;fill-opacity:1;fill-rule:nonzero;stroke:none"
         id="path128" /><path
         d="m 5568.58,2728.87 -1.24,2.86 c 24.08,66.5 18.23,119.15 -0.16,159.73 -31.62,74.34 -105.5,109.5 -120.35,115.94 l 639.18,280.33 c -4.74,-15.33 -26.59,-95.13 6.73,-168.9 17.43,-40.99 51.43,-80.51 114.3,-106.55 l 1.26,-2.85 -295.96,-146.1 c -17.78,-8.77 -35.96,-16.72 -54.48,-23.8 l -289.28,-110.66"
         style="fill:#c5dae7;fill-opacity:1;fill-rule:nonzero;stroke:none"
         id="path130" /><path
         d="m 6396.37,2590.44 -0.49,0.48 0.01,0.01 z"
         style="fill:#a2a4a7;fill-opacity:1;fill-rule:nonzero;stroke:none"
         id="path132" /><path
         d="m 3756.28,4800.87 v 162.16 l 74.18,43.33 35.69,-65.78 v -66.03 l 38.5,-15.84 -42.22,-104.47 -56.91,-707.32 483.98,-188.52 -120.2,-255.03 -513.23,301.16 -44.19,178.82 144.4,717.52"
         style="fill:#a37567;fill-opacity:1;fill-rule:nonzero;stroke:none"
         id="path134" /><path
         d="m 4052.64,1794.77 54.74,-1083.329 120.2,-14.332 98.94,1097.661 h -273.88"
         style="fill:#a37567;fill-opacity:1;fill-rule:nonzero;stroke:none"
         id="path136" /><path
         d="m 4816.11,1799.28 36.2,-1070.55 -118.78,-14.332 -190.78,1067.992 273.36,16.89"
         style="fill:#a37567;fill-opacity:1;fill-rule:nonzero;stroke:none"
         id="path138" /><path
         d="m 4838.84,1744.83 1.04,14.04 -25.64,594.76 -487.72,81.67 167.96,-690.47 h 344.36"
         style="fill:#145566;fill-opacity:1;fill-rule:nonzero;stroke:none"
         id="path140" /><path
         d="m 4362.83,1744.83 134.03,865.49 -478.85,-46.24 -24.69,-449.55 20.26,-369.7 h 349.25"
         style="fill:#145566;fill-opacity:1;fill-rule:nonzero;stroke:none"
         id="path142" /><path
         d="m 4672.85,3888.46 -351.45,37.65 c 0,0 -195.51,-20.89 -328.17,-485.21 -73.81,-258.32 -96.27,-665.31 -101.68,-975.6 8.3,-44.26 56.52,-238.14 260.42,-205.25 350.16,56.48 536.53,112.95 689.02,84.72 129.89,-28.24 118.91,150.6 104.63,287.08 l -51.76,422.28 -221.01,834.33"
         style="fill:#9ea6ad;fill-opacity:1;fill-rule:nonzero;stroke:none"
         id="path144" /><path
         d="m 4604.98,4325.92 c -88.59,19.53 -179.75,37.02 -268.43,19.47 -19.42,-3.85 -40.27,-10.61 -50.81,-27.37 -4.08,-6.5 -6.24,-13.99 -8.23,-21.4 -22.38,-83.18 -50.76,-206.49 4,-283.13 10.44,-14.61 24.46,-26.22 39.53,-35.63 20.15,-12.6 42.45,-21.16 65.53,-25.71 -4.78,-20.69 -11.42,-40.94 -19.84,-60.41 20.27,-30.58 114.87,-34.25 132.36,-4.93 0.99,25.37 1.97,50.73 2.94,76.09 11.52,4.66 22.65,10.31 33.09,17.19 40.43,26.63 67.07,67.04 82.54,112.24 16.85,49.23 40.56,96.02 55.95,146.19 5.61,18.28 10.03,39.14 0.41,55.66 -10.23,17.59 -32.33,23.58 -52.2,28.01 -5.6,1.24 -11.21,2.49 -16.84,3.73"
         style="fill:#a37567;fill-opacity:1;fill-rule:nonzero;stroke:none"
         id="path146" /><path
         d="m 4310.14,4278.36 c 43.78,28.16 109.47,40.28 150.63,37.3 124.47,-9.02 170.06,-100.42 176.71,-214.86 34.29,43.58 98.64,98.4 102.52,154.48 3.18,45.9 -3.17,108.49 -28.88,148.13 -24.07,37.09 -85.59,57.47 -122.18,78.96 -34.49,20.26 -68.99,40.52 -103.48,60.78 -7.17,4.22 -14.54,8.5 -22.74,9.93 -9.7,1.68 -19.57,-0.8 -29.1,-3.26 -81.52,-21.07 -163.04,-42.14 -244.56,-63.21 -15.66,-4.05 -33.51,-9.96 -39.27,-25.07 -3.51,-9.19 -1.45,-19.46 0.65,-29.07 9.25,-42.32 27.02,-85.58 31.42,-128.45 4.98,-24.9 19.83,-152.56 63.93,-137.82 12.95,21.17 14.89,47.25 24.98,69.93 7.46,16.75 21.61,30.81 39.37,42.23"
         style="fill:#101e30;fill-opacity:1;fill-rule:nonzero;stroke:none"
         id="path148" /><path
         d="m 5138.36,4799.15 34.31,158.49 -63.33,58.05 -48.8,-56.75 -13.97,-64.53 -40.98,-7.34 19.16,-111.03 -94.04,-703.35 -291.33,-203.96 63.52,-274.68 343.75,307.85 81.02,165.43 10.69,731.82"
         style="fill:#a37567;fill-opacity:1;fill-rule:nonzero;stroke:none"
         id="path150" /><path
         d="m 4107.38,711.441 -108.9,-68.941 10.27,-60.77 229.8,27.942 -10.97,87.437 -120.2,14.332"
         style="fill:#122235;fill-opacity:1;fill-rule:nonzero;stroke:none"
         id="path152" /><path
         d="m 4852.31,728.73 110.32,-68.941 -10.27,-60.769 -229.8,27.941 10.97,87.437 118.78,14.332"
         style="fill:#122235;fill-opacity:1;fill-rule:nonzero;stroke:none"
         id="path154" /><path
         d="m 5028.69,5170.75 c 1.6,7.18 58.58,17.46 64.7,18.97 58.35,14.44 118.14,23.4 178.12,27.15 172.53,10.79 307.86,-32.54 464.05,-102.58 143.04,-64.13 379.49,-119.23 788.02,-16.91 l 103.4,-284.82 c 2.64,-7.27 -517.26,-167.56 -864.82,-54.19 -79.99,26.09 -176.28,58.83 -253.92,91.14 -56.55,23.54 -115.53,41.75 -175.46,54.36 -119.6,25.16 -245.59,27.72 -364.15,-4.4 l 60.06,271.28"
         style="fill:#ebb044;fill-opacity:1;fill-rule:nonzero;stroke:none"
         id="path156" /><path
         d="m 5379.43,5063.95 -27.94,9.92 51.07,143.95 27.94,-9.91 -51.07,-143.96"
         style="fill:#145566;fill-opacity:1;fill-rule:nonzero;stroke:none"
         id="path158" /><path
         d="m 5666.34,5001.84 -28.36,8.63 38.81,127.55 28.36,-8.63 -38.81,-127.55"
         style="fill:#145566;fill-opacity:1;fill-rule:nonzero;stroke:none"
         id="path160" /><path
         d="m 5957.96,4922.72 -29.06,5.87 25.03,123.99 29.06,-5.87 -25.03,-123.99"
         style="fill:#145566;fill-opacity:1;fill-rule:nonzero;stroke:none"
         id="path162" /><path
         d="m 6249.76,4918.34 -17.17,127.43 29.37,3.96 17.18,-127.43 -29.38,-3.96"
         style="fill:#145566;fill-opacity:1;fill-rule:nonzero;stroke:none"
         id="path164" /><path
         d="m 5307.29,6648.07 c -213.93,155.89 -440.21,121.66 -600.31,59.47 -115.87,-45 -245.11,-40.44 -358.61,10.24 -157.88,70.5 -386.76,117.79 -610.59,-32.27 -300.12,-201.2 -365.1,-568.58 -311.73,-905.3 39.49,-249.19 120.82,-507.65 261.94,-721.04 136.56,-206.49 400.53,-427.71 667.05,-344.54 81.26,25.36 168.83,24.08 247.76,-7.83 377.84,-152.75 666.76,271.77 805.59,557.76 144.97,298.65 250.8,666.82 161.47,997.39 -41.99,155.41 -132.44,291.3 -262.57,386.12"
         style="fill:#c8d6a1;fill-opacity:1;fill-rule:nonzero;stroke:none"
         id="path166" /><path
         d="m 4423.45,6966.31 c 36.91,94.16 110.43,174.82 187.11,225.89 76.68,51.06 156.81,76.12 234.58,94.15 68.98,15.98 137.32,26.99 204.55,32.97 -16.19,-62.05 -42.65,-123.53 -70.23,-183.99 -39.81,-87.25 -83.03,-174.6 -138.86,-252.57 -55.84,-77.96 -125.85,-146.57 -199.79,-179.42 -152.34,-67.67 -295.03,64.8 -217.36,262.97"
         style="fill:#3ababa;fill-opacity:1;fill-rule:nonzero;stroke:none"
         id="path168" /><path
         d="m 3472.6,6345.43 c 0,0 -119.93,-103.38 87.98,-147.68 158.48,-29.14 318.6,-50.82 478.51,-70.13 332.26,-40.12 667.81,-66.26 1002.67,-59.41 115.23,2.36 230.52,8.84 345.01,22.46 53.19,6.33 106.56,13.67 159.1,24.29 41.47,8.37 62.52,25.72 46.88,69.56 76,-18.26 75.13,-84.22 74.12,-147.56 -0.66,-42.04 -4.47,-84.03 -10.72,-125.6 -5.65,-37.62 -3.76,-93.17 -22.89,-126.21 -24.12,-41.67 -84.96,-43.21 -126.48,-49.26 -53.11,-7.75 -106.44,-13.94 -159.87,-19.04 -106.74,-10.19 -213.85,-15.89 -320.96,-20.21 -254.54,-10.25 -509.77,-4.42 -763.61,16.91 -153.28,12.88 -306.08,31.5 -457.93,56.03 -81.2,13.11 -162.12,27.92 -242.69,44.46 -51.63,10.6 -129.95,23.9 -164.41,69.66 -14.37,19.07 -24.56,41.07 -32.14,63.61 -27.59,82.14 -17.71,174.77 -0.08,257.77 0,0 22.99,114.68 107.51,140.35"
         style="fill:#ebb044;fill-opacity:1;fill-rule:nonzero;stroke:none"
         id="path170" /><path
         d="m 3427.76,5758.41 c 0,0 13.6,-141.61 119.02,-150.73 0,0 1344.53,-149.74 2030.13,98.34 0,0 -10.33,-143.03 -132.51,-393.08 -182.97,-51.85 -275.93,-73.64 -463.92,-96.27 -241.72,-29.1 -485.32,-42.22 -728.75,-39.77 -147,1.48 -293.97,8.71 -440.48,21.91 -127.53,11.49 -246.62,38.81 -320.57,152.61 -16.46,25.32 -29.15,53.2 -40.01,81.32 -20.88,54.03 -34.21,110.54 -50.69,165.97 -5.68,19.09 -9.04,39.61 -10.74,59.43 -3.07,35.85 -0.42,84.47 38.52,100.27"
         style="fill:#ebb044;fill-opacity:1;fill-rule:nonzero;stroke:none"
         id="path172" /><path
         d="m 3616.83,6017.66 -29.28,4.6 26.07,165.82 29.28,-4.6 -26.07,-165.82"
         style="fill:#145566;fill-opacity:1;fill-rule:nonzero;stroke:none"
         id="path174" /><path
         d="m 3967.14,5964.38 -29.31,4.48 25.71,168.48 29.3,-4.47 -25.7,-168.49"
         style="fill:#145566;fill-opacity:1;fill-rule:nonzero;stroke:none"
         id="path176" /><path
         d="m 4315.82,5928.34 -29.44,3.44 19.55,167.41 29.44,-3.44 -19.55,-167.41"
         style="fill:#145566;fill-opacity:1;fill-rule:nonzero;stroke:none"
         id="path178" /><path
         d="m 4682.82,5901.12 -29.59,1.83 10.69,172.03 29.59,-1.84 -10.69,-172.02"
         style="fill:#145566;fill-opacity:1;fill-rule:nonzero;stroke:none"
         id="path180" /><path
         d="m 4996.47,5897.33 -16.29,166.73 29.51,2.88 16.28,-166.73 -29.5,-2.88"
         style="fill:#145566;fill-opacity:1;fill-rule:nonzero;stroke:none"
         id="path182" /><path
         d="m 5334.82,5919.59 -1.63,166.61 29.64,0.29 1.63,-166.6 -29.64,-0.3"
         style="fill:#145566;fill-opacity:1;fill-rule:nonzero;stroke:none"
         id="path184" /><path
         d="m 3610.26,5442.89 -23.26,157.08 29.33,4.34 23.26,-157.07 -29.33,-4.35"
         style="fill:#145566;fill-opacity:1;fill-rule:nonzero;stroke:none"
         id="path186" /><path
         d="m 3933.43,5417.07 -12.32,158.97 29.55,2.3 12.32,-158.97 -29.55,-2.3"
         style="fill:#145566;fill-opacity:1;fill-rule:nonzero;stroke:none"
         id="path188" /><path
         d="m 4299.6,5415.78 -15.64,146.57 29.47,3.14 15.64,-146.57 -29.47,-3.14"
         style="fill:#145566;fill-opacity:1;fill-rule:nonzero;stroke:none"
         id="path190" /><path
         d="m 4665.41,5408.74 -18.17,156.37 29.45,3.41 18.16,-156.36 -29.44,-3.42"
         style="fill:#145566;fill-opacity:1;fill-rule:nonzero;stroke:none"
         id="path192" /><path
         d="m 5026.1,5423.55 -14.07,166.88 29.54,2.49 14.07,-166.88 -29.54,-2.49"
         style="fill:#145566;fill-opacity:1;fill-rule:nonzero;stroke:none"
         id="path194" /><path
         d="m 5347.05,5474.2 -22.75,163.65 29.37,4.08 22.74,-163.64 -29.36,-4.09"
         style="fill:#145566;fill-opacity:1;fill-rule:nonzero;stroke:none"
         id="path196" /><path
         d="m 2202.37,2790.69 128.73,-98.61 79.51,32.53 -30.52,68.34 -52.42,40.15 10.84,40.2 -108.6,30.01 -396.49,365.92 45.04,261.13 -118.82,243.58 -125.26,-534.81 79.12,-152.78 488.87,-295.66"
         style="fill:#e5bbae;fill-opacity:1;fill-rule:nonzero;stroke:none"
         id="path198" /><path
         d="m 2033.18,4423.89 c 0,0 141.97,-78.43 153.28,-252.49 11.32,-174.07 51.75,-280.92 51.75,-280.92 0,0 -51.94,-39.21 -99.86,-22.32 -47.93,16.88 -64.87,18.61 -64.37,90.46 0.5,71.86 -40.8,404.78 -40.8,404.78 v 60.49"
         style="fill:#101e30;fill-opacity:1;fill-rule:nonzero;stroke:none"
         id="path200" /><path
         d="m 2132.3,4234.21 c -71.98,167.08 -282.84,88.3 -313.69,-66.92 -17.54,-88.27 25.84,-243.41 131.62,-247.36 4.97,-15.1 13.45,-43.61 27.54,-51.3 15.26,-8.33 53.1,11.32 68.04,18.49 4.15,2 8.44,4.27 10.89,8.16 3.08,4.87 1.36,15.68 -1.2,27.5 11.39,3.38 22.73,8.28 33.91,14.94 46.89,27.96 73.06,83.08 76.78,137.63 3.73,54.53 -12.25,108.66 -33.89,158.86"
         style="fill:#e5bbae;fill-opacity:1;fill-rule:nonzero;stroke:none"
         id="path202" /><path
         d="m 2044.8,4410.15 c 0,0 42.17,-89.92 -72.84,-143.21 -115.02,-53.3 -172.38,-165.46 -129.2,-260.66 43.18,-95.2 148.98,-148.82 107.55,-185.67 -41.44,-36.85 -220.76,-49.34 -220.76,-49.34 0,0 -183.82,328.66 -75.98,512.8 107.84,184.15 311.65,235.22 391.23,126.08"
         style="fill:#101e30;fill-opacity:1;fill-rule:nonzero;stroke:none"
         id="path204" /><path
         d="m 8567.76,4504.02 -1305.98,161.26 c -48.14,5.94 -82.34,49.79 -76.4,97.92 l 161.26,1305.98 c 5.95,48.13 49.79,82.34 97.92,76.39 l 1305.98,-161.26 c 48.13,-5.94 82.34,-49.78 76.39,-97.92 L 8665.67,4580.42 c -5.94,-48.14 -49.78,-82.34 -97.91,-76.4"
         style="fill:#3ababa;fill-opacity:1;fill-rule:nonzero;stroke:none"
         id="path206" /><path
         d="m 7892.64,5626.1 c 47.08,18.61 99.34,26.04 153.12,19.4 53.77,-6.64 102.66,-26.57 143.79,-56.06 l 244.19,144.09 c -72.02,121.76 -197.61,210.05 -348.87,228.73 -151.26,18.68 -294.55,-36.41 -394.03,-136.99 l 201.8,-199.17"
         style="fill:#ececec;fill-opacity:1;fill-rule:nonzero;stroke:none"
         id="path208" /><path
         d="m 8073.62,5641.74 -58.31,7.2 51.64,168.2 z"
         style="fill:#59595b;fill-opacity:1;fill-rule:nonzero;stroke:none"
         id="path210" /><path
         d="M 8463.35,4638.27 7395.7,4770.1 c -31.93,3.94 -54.62,33.02 -50.67,64.95 l 86.32,699.16 c 3.95,31.93 33.03,54.61 64.96,50.67 l 1067.65,-131.83 c 31.93,-3.94 54.62,-33.03 50.67,-64.95 l -86.33,-699.16 c -3.94,-31.92 -33.02,-54.61 -64.95,-50.67"
         style="fill:#9ea6ad;fill-opacity:1;fill-rule:nonzero;stroke:none"
         id="path212" /><path
         d="m 7950.03,1485.99 151.28,-756.861 105.37,-0.359 -47.38,829.39 -209.27,-72.17"
         style="fill:#e5bbae;fill-opacity:1;fill-rule:nonzero;stroke:none"
         id="path214" /><path
         d="m 6475.24,2735.29 -91.42,-133.94 -85.7,6.03 7.61,74.45 37.23,54.54 -22.87,34.79 93.76,62.48 262.11,471.59 -124.47,233.93 36.65,268.53 286.28,-468.78 -27.35,-169.86 -371.83,-433.76"
         style="fill:#e5bbae;fill-opacity:1;fill-rule:nonzero;stroke:none"
         id="path216" /></g></g></svg>
